<?xml version="1.0" standalone="no"?>
<!DOCTYPE svg PUBLIC "-//W3C//DTD SVG 20010904//EN"
 "http://www.w3.org/TR/2001/REC-SVG-20010904/DTD/svg10.dtd">
<svg version="1.0" xmlns="http://www.w3.org/2000/svg"
 width="250.000000pt" height="250.000000pt" viewBox="0 0 250.000000 250.000000"
 preserveAspectRatio="xMidYMid meet">
<metadata>
Created by potrace 1.14, written by Peter Selinger 2001-2017
</metadata>
<g transform="translate(0.000000,250.000000) scale(0.100000,-0.100000)"
fill="#000000" stroke="none">
<path d="M1234 2378 c13 -45 21 -125 19 -198 -1 -63 -7 -115 -13 -115 -1 0 -3
-12 -5 -26 -5 -36 -42 -117 -71 -156 -13 -17 -24 -34 -24 -38 0 -9 -146 -165
-154 -165 -5 0 -110 -96 -182 -165 -61 -58 -149 -167 -171 -210 -9 -16 -19
-32 -23 -35 -21 -15 -86 -185 -96 -248 -3 -21 -8 -48 -11 -62 -9 -44 -9 -121
0 -127 4 -3 7 -17 6 -31 -1 -15 0 -34 3 -42 3 -8 13 -41 23 -72 17 -54 33 -69
34 -30 1 42 7 81 14 88 4 4 7 14 7 21 0 27 83 188 110 213 3 3 23 27 45 55 39
48 87 97 306 311 162 158 218 228 267 334 40 86 51 137 49 227 -1 41 1 77 5
79 4 3 5 10 2 17 -2 7 -6 33 -8 58 -2 24 -6 51 -9 59 -3 8 -12 38 -20 65 -8
28 -33 88 -56 133 -40 80 -60 105 -47 60z"/>
<path d="M1515 1972 c1 -39 -15 -136 -29 -177 -2 -5 -4 -13 -5 -17 -1 -5 -10
-24 -21 -43 -11 -20 -20 -42 -20 -50 0 -8 -4 -15 -8 -15 -5 0 -15 -12 -23 -27
-8 -16 -18 -33 -24 -40 -5 -6 -21 -28 -35 -48 -14 -20 -40 -52 -57 -71 -18
-19 -33 -36 -33 -39 0 -8 -227 -230 -285 -278 -109 -90 -215 -197 -215 -217 0
-6 -3 -10 -8 -10 -8 0 -71 -117 -76 -141 -2 -7 -6 -21 -9 -29 -28 -76 -27
-231 2 -305 20 -49 60 -125 73 -140 7 -7 24 -27 38 -45 29 -36 94 -85 163
-123 26 -15 48 -26 50 -26 1 0 9 -2 17 -5 90 -30 154 -40 260 -40 97 0 164 8
206 24 16 6 30 11 32 10 8 -5 124 46 187 82 58 33 161 141 191 199 l25 51 -23
-7 c-13 -4 -28 -11 -34 -16 -20 -16 -151 -58 -186 -61 -18 -1 -37 -4 -42 -7
-11 -5 -82 -2 -131 5 -16 3 -37 5 -45 6 -8 0 -20 5 -27 10 -7 5 -17 7 -22 4
-5 -4 -12 -2 -16 4 -3 5 -25 18 -48 28 -61 28 -133 106 -158 172 -31 80 -30
180 2 278 20 62 155 294 296 507 38 58 80 145 89 189 16 66 19 99 17 176 -1
73 -5 104 -17 155 -2 6 -6 17 -9 25 -3 8 -11 32 -17 52 -16 54 -26 54 -25 0z"/>
<path d="M1665 1537 c0 -53 -6 -88 -25 -135 -13 -34 -28 -62 -32 -62 -5 0 -8
-5 -8 -11 0 -14 -84 -120 -150 -188 -33 -34 -97 -118 -118 -153 -77 -135 -59
-302 44 -405 29 -29 60 -53 68 -53 9 0 16 -5 16 -12 0 -6 3 -9 6 -5 4 3 25 -1
47 -11 56 -22 231 -21 253 1 4 4 13 7 20 7 26 0 105 63 136 107 54 79 81 171
81 278 0 81 -20 192 -48 258 -8 20 -15 39 -15 42 1 19 -102 229 -121 245 -3 3
-20 27 -38 54 -37 53 -95 116 -108 116 -4 0 -8 -33 -8 -73z"/>
</g>
</svg>
